HIERARCHY
ROOT mixamorig:Hips
{
	OFFSET 0.000000 104.274902 0.000000
	CHANNELS 6 Xposition Yposition Zposition Xrotation Yrotation Zrotation
	JOINT mixamorig:Spine
	{
		OFFSET 0.000000 10.181549 0.131524
		CHANNELS 6 Xposition Yposition Zposition Xrotation Yrotation Zrotation
		JOINT mixamorig:Spine1
		{
			OFFSET 0.000000 9.893990 -1.470706
			CHANNELS 3 Xrotation Yrotation Zrotation
			JOINT mixamorig:Spine2
			{
				OFFSET 0.000000 9.220787 -1.370636
				CHANNELS 3 Xrotation Yrotation Zrotation
				JOINT mixamorig:Neck
				{
					OFFSET 0.000000 16.740372 -2.049023
					CHANNELS 6 Xposition Yposition Zposition Xrotation Yrotation Zrotation
					JOINT mixamorig:Head
					{
						OFFSET 0.000000 9.617859 1.684975
						CHANNELS 6 Xposition Yposition Zposition Xrotation Yrotation Zrotation
						JOINT mixamorig:HeadTop_End
						{
							OFFSET 0.000000 22.037369 7.501070
							CHANNELS 6 Xposition Yposition Zposition Xrotation Yrotation Zrotation
							End Site
							{
								OFFSET 0.000000 23.106567 -2.828246
							}
						}
					}
				}
				JOINT mixamorig:RightShoulder
				{
					OFFSET -4.570000 11.014862 -2.160841
					CHANNELS 6 Xposition Yposition Zposition Xrotation Yrotation Zrotation
					JOINT mixamorig:RightArm
					{
						OFFSET -10.592869 -0.524796 -2.232105
						CHANNELS 3 Xrotation Yrotation Zrotation
						JOINT mixamorig:RightForeArm
						{
							OFFSET -27.841499 0.000000 0.000000
							CHANNELS 3 Xrotation Yrotation Zrotation
							JOINT mixamorig:RightHand
							{
								OFFSET -28.328800 0.000000 0.000000
								CHANNELS 3 Xrotation Yrotation Zrotation
								JOINT mixamorig:RightHandThumb1
								{
									OFFSET -2.464798 -1.573990 2.681910
									CHANNELS 6 Xposition Yposition Zposition Xrotation Yrotation Zrotation
									JOINT mixamorig:RightHandThumb2
									{
										OFFSET -3.244789 -1.873367 1.873378
										CHANNELS 3 Xrotation Yrotation Zrotation
										JOINT mixamorig:RightHandThumb3
										{
											OFFSET -2.646255 -1.527817 1.527816
											CHANNELS 3 Xrotation Yrotation Zrotation
											JOINT mixamorig:RightHandThumb4
											{
												OFFSET -1.994583 -1.151581 1.151575
												CHANNELS 3 Xrotation Yrotation Zrotation
												End Site
												{
													OFFSET -1.860176 -1.142715 1.365483
												}
											}
										}
									}
								}
								JOINT mixamorig:RightHandIndex1
								{
									OFFSET -9.108299 -0.517883 2.259803
									CHANNELS 6 Xposition Yposition Zposition Xrotation Yrotation Zrotation
									JOINT mixamorig:RightHandIndex2
									{
										OFFSET -3.700005 0.000000 0.000000
										CHANNELS 3 Xrotation Yrotation Zrotation
										JOINT mixamorig:RightHandIndex3
										{
											OFFSET -2.849998 0.000000 0.000000
											CHANNELS 3 Xrotation Yrotation Zrotation
											JOINT mixamorig:RightHandIndex4
											{
												OFFSET -2.772202 0.000000 0.000000
												CHANNELS 3 Xrotation Yrotation Zrotation
												End Site
												{
													OFFSET -2.772202 0.000000 -0.000484
												}
											}
										}
									}
								}
								JOINT mixamorig:RightHandMiddle1
								{
									OFFSET -9.532501 0.000000 0.000000
									CHANNELS 6 Xposition Yposition Zposition Xrotation Yrotation Zrotation
									JOINT mixamorig:RightHandMiddle2
									{
										OFFSET -3.699997 0.000000 0.000000
										CHANNELS 3 Xrotation Yrotation Zrotation
										JOINT mixamorig:RightHandMiddle3
										{
											OFFSET -2.950005 0.000000 0.000000
											CHANNELS 3 Xrotation Yrotation Zrotation
											JOINT mixamorig:RightHandMiddle4
											{
												OFFSET -2.946602 0.000000 0.000000
												CHANNELS 3 Xrotation Yrotation Zrotation
												End Site
												{
													OFFSET -2.946594 0.000000 -0.000982
												}
											}
										}
									}
								}
								JOINT mixamorig:RightHandRing1
								{
									OFFSET -9.103600 -0.043106 -1.865100
									CHANNELS 6 Xposition Yposition Zposition Xrotation Yrotation Zrotation
									JOINT mixamorig:RightHandRing2
									{
										OFFSET -3.379303 0.000000 0.000000
										CHANNELS 3 Xrotation Yrotation Zrotation
										JOINT mixamorig:RightHandRing3
										{
											OFFSET -2.889702 0.000000 0.000000
											CHANNELS 3 Xrotation Yrotation Zrotation
											JOINT mixamorig:RightHandRing4
											{
												OFFSET -2.638794 0.000000 0.000000
												CHANNELS 3 Xrotation Yrotation Zrotation
												End Site
												{
													OFFSET -2.638794 0.000000 0.004219
												}
											}
										}
									}
								}
								JOINT mixamorig:RightHandPinky1
								{
									OFFSET -8.076698 -0.486725 -3.806297
									CHANNELS 6 Xposition Yposition Zposition Xrotation Yrotation Zrotation
									JOINT mixamorig:RightHandPinky2
									{
										OFFSET -3.600006 0.000000 0.000000
										CHANNELS 3 Xrotation Yrotation Zrotation
										JOINT mixamorig:RightHandPinky3
										{
											OFFSET -2.099998 0.000000 0.000000
											CHANNELS 3 Xrotation Yrotation Zrotation
											JOINT mixamorig:RightHandPinky4
											{
												OFFSET -2.115799 0.000000 0.000000
												CHANNELS 3 Xrotation Yrotation Zrotation
												End Site
												{
													OFFSET -2.115799 0.000000 0.000174
												}
											}
										}
									}
								}
							}
						}
					}
				}
				JOINT mixamorig:LeftShoulder
				{
					OFFSET 4.570400 11.014664 -2.160817
					CHANNELS 6 Xposition Yposition Zposition Xrotation Yrotation Zrotation
					JOINT mixamorig:LeftArm
					{
						OFFSET 10.592365 -0.524597 -2.232113
						CHANNELS 3 Xrotation Yrotation Zrotation
						JOINT mixamorig:LeftForeArm
						{
							OFFSET 27.841499 0.000000 0.000000
							CHANNELS 3 Xrotation Yrotation Zrotation
							JOINT mixamorig:LeftHand
							{
								OFFSET 28.328804 0.000000 0.000000
								CHANNELS 3 Xrotation Yrotation Zrotation
								JOINT mixamorig:LeftHandThumb1
								{
									OFFSET 2.466095 -1.576202 2.681697
									CHANNELS 6 Xposition Yposition Zposition Xrotation Yrotation Zrotation
									JOINT mixamorig:LeftHandThumb2
									{
										OFFSET 3.243317 -1.872528 1.872528
										CHANNELS 3 Xrotation Yrotation Zrotation
										JOINT mixamorig:LeftHandThumb3
										{
											OFFSET 2.647881 -1.528763 1.528755
											CHANNELS 3 Xrotation Yrotation Zrotation
											JOINT mixamorig:LeftHandThumb4
											{
												OFFSET 1.998924 -1.154068 1.154079
												CHANNELS 3 Xrotation Yrotation Zrotation
												End Site
												{
													OFFSET 1.884041 -1.149155 1.337651
												}
											}
										}
									}
								}
								JOINT mixamorig:LeftHandIndex1
								{
									OFFSET 9.109299 -0.518005 2.259899
									CHANNELS 6 Xposition Yposition Zposition Xrotation Yrotation Zrotation
									JOINT mixamorig:LeftHandIndex2
									{
										OFFSET 3.699997 0.000000 0.000000
										CHANNELS 3 Xrotation Yrotation Zrotation
										JOINT mixamorig:LeftHandIndex3
										{
											OFFSET 2.849998 0.000000 0.000000
											CHANNELS 3 Xrotation Yrotation Zrotation
											JOINT mixamorig:LeftHandIndex4
											{
												OFFSET 2.774902 0.000000 0.000000
												CHANNELS 3 Xrotation Yrotation Zrotation
												End Site
												{
													OFFSET 2.774902 0.000000 -0.000072
												}
											}
										}
									}
								}
								JOINT mixamorig:LeftHandMiddle1
								{
									OFFSET 9.533394 0.000000 0.000000
									CHANNELS 6 Xposition Yposition Zposition Xrotation Yrotation Zrotation
									JOINT mixamorig:LeftHandMiddle2
									{
										OFFSET 3.700005 0.000000 0.000000
										CHANNELS 3 Xrotation Yrotation Zrotation
										JOINT mixamorig:LeftHandMiddle3
										{
											OFFSET 2.949997 0.000000 0.000000
											CHANNELS 3 Xrotation Yrotation Zrotation
											JOINT mixamorig:LeftHandMiddle4
											{
												OFFSET 2.952904 0.000000 0.000000
												CHANNELS 3 Xrotation Yrotation Zrotation
												End Site
												{
													OFFSET 2.952896 0.000000 0.000165
												}
											}
										}
									}
								}
								JOINT mixamorig:LeftHandRing1
								{
									OFFSET 9.104500 -0.042999 -1.865100
									CHANNELS 6 Xposition Yposition Zposition Xrotation Yrotation Zrotation
									JOINT mixamorig:LeftHandRing2
									{
										OFFSET 3.149994 0.000000 0.000000
										CHANNELS 3 Xrotation Yrotation Zrotation
										JOINT mixamorig:LeftHandRing3
										{
											OFFSET 2.950005 0.000000 0.000000
											CHANNELS 3 Xrotation Yrotation Zrotation
											JOINT mixamorig:LeftHandRing4
											{
												OFFSET 2.644295 0.000000 0.000000
												CHANNELS 3 Xrotation Yrotation Zrotation
												End Site
												{
													OFFSET 2.644302 0.000000 0.000083
												}
											}
										}
									}
								}
								JOINT mixamorig:LeftHandPinky1
								{
									OFFSET 8.077797 -0.486893 -3.806301
									CHANNELS 6 Xposition Yposition Zposition Xrotation Yrotation Zrotation
									JOINT mixamorig:LeftHandPinky2
									{
										OFFSET 3.599998 0.000000 0.000000
										CHANNELS 3 Xrotation Yrotation Zrotation
										JOINT mixamorig:LeftHandPinky3
										{
											OFFSET 2.099998 0.000000 0.000000
											CHANNELS 3 Xrotation Yrotation Zrotation
											JOINT mixamorig:LeftHandPinky4
											{
												OFFSET 2.125504 0.000000 0.000000
												CHANNELS 3 Xrotation Yrotation Zrotation
												End Site
												{
													OFFSET 2.125504 0.000000 -0.001254
												}
											}
										}
									}
								}
							}
						}
					}
				}
			}
		}
	}
	JOINT mixamorig:RightUpLeg
	{
		OFFSET -8.207800 -6.751701 -1.599544
		CHANNELS 6 Xposition Yposition Zposition Xrotation Yrotation Zrotation
		JOINT mixamorig:RightLeg
		{
			OFFSET 0.000000 -44.370155 0.345934
			CHANNELS 3 Xrotation Yrotation Zrotation
			JOINT mixamorig:RightFoot
			{
				OFFSET 0.000000 -44.423664 -3.043536
				CHANNELS 3 Xrotation Yrotation Zrotation
				JOINT mixamorig:RightToeBase
				{
					OFFSET 0.000000 -8.728685 10.710592
					CHANNELS 3 Xrotation Yrotation Zrotation
					JOINT mixamorig:RightToe_End
					{
						OFFSET 0.000000 -0.000664 9.278099
						CHANNELS 3 Xrotation Yrotation Zrotation
						End Site
						{
							OFFSET 0.000000 -0.000664 9.278101
						}
					}
				}
			}
		}
	}
	JOINT mixamorig:LeftUpLeg
	{
		OFFSET 8.207800 -6.751701 -1.599544
		CHANNELS 6 Xposition Yposition Zposition Xrotation Yrotation Zrotation
		JOINT mixamorig:LeftLeg
		{
			OFFSET 0.000000 -44.370049 0.346940
			CHANNELS 3 Xrotation Yrotation Zrotation
			JOINT mixamorig:LeftFoot
			{
				OFFSET 0.000000 -44.423603 -3.044389
				CHANNELS 3 Xrotation Yrotation Zrotation
				JOINT mixamorig:LeftToeBase
				{
					OFFSET 0.000000 -8.728686 10.710592
					CHANNELS 3 Xrotation Yrotation Zrotation
					JOINT mixamorig:LeftToe_End
					{
						OFFSET 0.000000 -0.000680 9.278100
						CHANNELS 3 Xrotation Yrotation Zrotation
						End Site
						{
							OFFSET 0.000000 -0.000680 9.278100
						}
					}
				}
			}
		}
	}
}
MOTION
Frames: 4
Frame Time: 0.033333
-0.381155 99.382339 3.664950 -2.010832 -1.768320 -1.600243 0.000001 10.181561 0.131524 0.114378 -0.102941 0.849201 0.209720 -0.167102 1.312119 0.209364 -0.167692 1.312112 0.000001 16.740376 -2.049022 -0.019238 0.360673 0.121461 0.000000 9.617824 1.684985 -9.512459 1.962310 0.032952 -0.000000 22.037399 7.501074 0.000001 -0.000000 -0.000000 -4.569997 11.014862 -2.160842 0.709803 -4.313702 11.466727 8.774277 24.145861 59.695157 -0.000003 20.285431 0.000039 -4.404466 1.412519 6.340068 -2.464804 -1.573991 2.681909 -10.721129 -3.589020 -7.634665 15.552348 -33.354672 -2.319519 -4.144824 8.228384 -1.921166 -0.000003 0.000004 0.000002 -9.108318 -0.517871 2.259800 -5.110801 2.215972 45.622095 0.825905 -3.291843 28.161770 0.012061 -0.410241 3.368295 -0.000001 0.000000 0.000001 -9.532514 0.000006 0.000000 0.004672 -2.244000 35.662009 1.265077 -4.004001 35.055632 0.070676 -0.990919 8.159469 -0.000001 0.000002 0.000001 -9.103605 -0.043106 -1.865100 3.435297 -7.152891 34.330723 0.756207 -3.158416 26.923045 0.047096 -0.809636 6.659023 0.000000 0.000001 -0.000002 -8.076705 -0.486726 -3.806297 -0.428429 -2.087179 40.813987 1.317477 -4.077496 35.799316 0.173369 -1.546069 12.795763 0.000000 -0.000001 0.000001 4.570399 11.014656 -2.160817 0.393611 5.366174 -7.142162 14.242601 -34.650243 -63.151533 -0.000004 -22.341771 -0.000026 -20.724491 9.618483 -8.194566 2.466077 -1.576222 2.681694 -2.005630 3.038989 3.723269 20.263261 45.707503 -11.276016 10.323536 26.496459 -3.588212 0.000002 0.000001 0.000003 9.109287 -0.518019 2.259899 -2.640572 -0.656092 -40.224176 0.530725 2.655533 -22.601779 -0.000004 -0.000003 0.000001 -0.000000 -0.000001 0.000001 9.533368 0.000005 -0.000000 -0.336441 1.462221 -32.332234 0.784524 3.196990 -27.570176 0.011050 0.390931 -3.241198 -0.000000 -0.000002 -0.000000 9.104488 -0.042990 -1.865099 1.340211 4.087097 -36.763247 0.824777 3.272822 -28.283714 0.034930 0.694218 -5.762421 -0.000000 0.000000 0.000000 8.077783 -0.486892 -3.806303 3.884457 7.081577 -40.384149 0.629897 -1.192581 -24.984468 0.017716 0.494842 -4.104063 0.000001 -0.000001 -0.000002 -8.207800 -6.751690 -1.599543 -13.232591 -12.533304 -9.112493 30.548868 -8.798551 -0.981935 -13.651088 -2.164994 10.207795 -0.000041 0.000000 -0.000004 -0.000000 0.000000 -0.000000 8.207801 -6.751693 -1.599541 -13.511944 13.845483 14.169158 30.076451 7.262440 2.333048 -13.736397 1.967298 -12.645955 -0.000038 0.000003 -0.000003 -0.000000 0.000000 0.000000 
-0.372533 99.385612 3.669055 -2.021828 -1.806298 -1.591017 0.000000 10.181546 0.131523 0.114126 -0.103355 0.853772 0.208108 -0.167935 1.319579 0.207765 -0.168478 1.319561 0.000000 16.740349 -2.049023 0.024701 0.365897 0.092639 0.000000 9.617849 1.684984 -9.501505 1.949865 0.034945 -0.000001 22.037354 7.501075 -0.000000 -0.000000 0.000000 -4.569999 11.014861 -2.160842 0.705478 -4.311525 11.401382 8.834284 24.170226 59.740871 -0.000019 20.370303 0.000021 -4.590944 1.465384 6.191629 -2.464794 -1.573979 2.681907 -10.698516 -3.621996 -7.665303 15.552348 -33.354672 -2.319525 -4.145393 8.230039 -1.921138 -0.000001 0.000003 -0.000000 -9.108314 -0.517870 2.259802 -5.102262 2.201329 45.645133 0.825736 -3.291529 28.158710 0.012105 -0.411150 3.375832 0.000002 0.000000 0.000001 -9.532529 0.000005 0.000000 0.002846 -2.242088 35.672268 1.263382 -4.001618 35.031685 0.070762 -0.989524 8.148256 0.000000 0.000000 0.000002 -9.103592 -0.043101 -1.865100 3.425017 -7.139368 34.319662 0.756845 -3.159657 26.934439 0.048175 -0.807613 6.643530 0.000004 -0.000001 0.000000 -8.076716 -0.486731 -3.806300 -0.433306 -2.079523 40.791594 1.314802 -4.073789 35.761720 0.172965 -1.544251 12.780325 0.000001 0.000000 0.000001 4.570403 11.014634 -2.160817 0.397307 5.378745 -7.195398 14.194927 -34.652511 -63.167919 0.000002 -22.154253 0.000021 -20.870423 9.391117 -8.273538 2.466094 -1.576224 2.681695 -1.908837 3.182475 3.895658 20.266841 45.711775 -11.278724 10.327611 26.503156 -3.590500 -0.000001 0.000002 0.000001 9.109314 -0.518010 2.259898 -2.641191 -0.657131 -40.222557 0.528646 2.650532 -22.556754 -0.000006 -0.000007 0.000001 -0.000001 -0.000001 0.000001 9.533405 0.000007 -0.000001 -0.338238 1.459707 -32.336486 0.775674 3.180005 -27.411026 0.010900 0.388046 -3.217299 0.000001 0.000001 0.000001 9.104509 -0.042995 -1.865101 1.337087 4.082959 -36.776638 0.825489 3.274111 -28.295884 0.034620 0.691218 -5.737509 -0.000001 -0.000001 -0.000002 8.077811 -0.486885 -3.806303 3.883651 7.080596 -40.384528 0.629602 -1.193192 -24.978982 0.017876 0.496963 -4.121597 0.000001 0.000003 -0.000003 -8.207802 -6.751708 -1.599545 -13.229945 -12.554782 -9.155218 30.542673 -8.789846 -0.954024 -13.648212 -2.098082 10.199129 -0.000026 -0.000000 -0.000005 -0.000000 -0.000000 0.000000 8.207801 -6.751714 -1.599545 -13.472219 13.850371 14.139333 30.055172 7.289104 2.346884 -13.737182 1.972876 -12.655379 0.000000 0.000005 -0.000003 0.000000 0.000003 0.000000 
-0.372601 99.373238 3.664053 -2.021768 -1.852102 -1.604243 0.000000 10.181541 0.131524 0.116484 -0.105077 0.853614 0.211635 -0.170763 1.318035 0.211291 -0.171293 1.318007 0.000000 16.740383 -2.049021 0.036688 0.350162 0.119140 0.000000 9.617854 1.684981 -9.362460 1.913419 0.011700 -0.000000 22.037399 7.501065 -0.000002 -0.000000 0.000000 -4.569999 11.014856 -2.160841 0.707759 -4.319881 11.435208 8.937792 24.231059 59.672924 -0.000008 20.513788 0.000042 -4.580020 1.376314 6.202456 -2.464805 -1.573984 2.681906 -10.682212 -3.646696 -7.683271 15.552348 -33.354676 -2.319531 -4.143763 8.225364 -1.921263 -0.000004 -0.000000 -0.000001 -9.108333 -0.517871 2.259796 -5.113425 2.213523 45.642503 0.826267 -3.292545 28.168194 0.012113 -0.411189 3.376072 0.000002 -0.000000 0.000002 -9.532514 0.000008 -0.000000 0.006066 -2.246769 35.674303 1.262993 -4.001042 35.025791 0.070142 -0.987893 8.134260 0.000002 -0.000003 -0.000001 -9.103599 -0.043101 -1.865104 3.429112 -7.144532 34.325754 0.756036 -3.158090 26.919978 0.047810 -0.808704 6.652115 0.000005 -0.000003 -0.000002 -8.076714 -0.486728 -3.806300 -0.448760 -2.058908 40.763385 1.313925 -4.072585 35.749535 0.172520 -1.542304 12.764020 -0.000001 -0.000001 0.000001 4.570398 11.014640 -2.160816 0.396069 5.374857 -7.177673 14.149879 -34.627099 -63.195431 0.000002 -22.081564 0.000000 -20.759086 9.433747 -8.365016 2.466089 -1.576223 2.681696 -1.995026 3.051801 3.781460 20.265018 45.709637 -11.277331 10.329747 26.506660 -3.591699 -0.000001 0.000002 0.000001 9.109294 -0.518005 2.259900 -2.664682 -0.682528 -40.240309 0.527605 2.648056 -22.534573 -0.000003 -0.000009 -0.000003 -0.000000 -0.000002 -0.000000 9.533396 -0.000002 0.000000 -0.332959 1.466922 -32.322740 0.771738 3.172399 -27.339934 0.010730 0.385352 -3.194934 0.000000 -0.000002 -0.000001 9.104513 -0.042995 -1.865100 1.342527 4.090215 -36.776204 0.825631 3.274397 -28.298532 0.034559 0.690531 -5.731790 -0.000001 -0.000000 -0.000001 8.077809 -0.486890 -3.806300 3.877896 7.075133 -40.371004 0.628764 -1.194976 -24.962608 0.017420 0.490573 -4.068614 -0.000000 -0.000002 -0.000004 -8.207802 -6.751727 -1.599544 -13.255783 -12.494348 -9.075384 30.574751 -8.810632 -1.058274 -13.652169 -2.141530 10.250441 -0.000052 0.000015 -0.000004 -0.000000 0.000000 0.000000 8.207801 -6.751715 -1.599545 -13.495834 13.848726 14.166465 30.112504 7.304915 2.337062 -13.769229 1.974726 -12.662535 -0.000023 0.000000 0.000000 -0.000000 -0.000002 -0.000000 
-0.372258 99.364372 3.660629 -2.023019 -1.884765 -1.618606 0.000000 10.181542 0.131525 0.119246 -0.107913 0.854834 0.216069 -0.175541 1.317937 0.215728 -0.176061 1.317894 -0.000000 16.740364 -2.049020 0.034253 0.341483 0.141321 -0.000001 9.617835 1.684979 -9.342823 1.896957 0.016108 0.000000 22.037384 7.501071 -0.000000 0.000000 -0.000000 -4.570001 11.014840 -2.160838 0.713022 -4.324679 11.514603 9.031402 24.253189 59.554830 0.000002 20.598911 0.000015 -4.410234 1.300261 6.388086 -2.464810 -1.573993 2.681903 -10.707227 -3.605347 -7.672385 15.552348 -33.354672 -2.319519 -4.146481 8.233224 -1.921057 -0.000001 -0.000001 0.000000 -9.108314 -0.517870 2.259800 -5.107724 2.223592 45.579492 0.825177 -3.290523 28.149370 0.012002 -0.409059 3.358591 0.000001 -0.000001 0.000000 -9.532514 0.000018 -0.000000 0.011788 -2.254900 35.675844 1.261936 -3.999571 35.010836 0.069243 -0.986536 8.122221 0.000000 -0.000001 0.000001 -9.103597 -0.043097 -1.865101 3.399958 -7.111433 34.249700 0.754856 -3.155760 26.898470 0.050739 -0.809007 6.657366 0.000002 -0.000003 0.000000 -8.076716 -0.486730 -3.806298 -0.449167 -2.050714 40.674801 1.313921 -4.072577 35.749173 0.172419 -1.541891 12.760480 -0.000000 0.000002 0.000001 4.570395 11.014632 -2.160814 0.394927 5.366650 -7.160584 14.129021 -34.607821 -63.205662 0.000003 -22.060789 0.000007 -20.699121 9.471410 -8.400407 2.466079 -1.576233 2.681696 -2.002345 3.040923 3.769677 20.244611 45.685172 -11.261915 10.326251 26.500994 -3.589741 0.000001 0.000002 -0.000001 9.109291 -0.518008 2.259899 -2.691625 -0.711433 -40.261506 0.539977 2.677610 -22.800449 0.000001 -0.000002 -0.000002 0.000000 -0.000001 -0.000001 9.533408 0.000011 -0.000001 -0.342514 1.448910 -32.290754 0.772992 3.174837 -27.362771 0.010514 0.381239 -3.160686 -0.000001 -0.000002 -0.000002 9.104502 -0.042988 -1.865098 1.361114 4.114964 -36.725773 0.825447 3.274065 -28.295433 0.034387 0.688794 -5.717254 -0.000001 -0.000002 -0.000000 8.077808 -0.486890 -3.806302 3.893242 7.095149 -40.346931 0.629742 -1.192892 -24.981707 0.017437 0.490872 -4.071023 -0.000001 -0.000001 -0.000000 -8.207802 -6.751698 -1.599541 -13.264739 -12.425361 -8.977992 30.585850 -8.838880 -1.181166 -13.647489 -2.203329 10.311783 -0.000048 -0.000003 -0.000003 -0.000000 0.000000 0.000000 8.207798 -6.751703 -1.599545 -13.516203 13.854917 14.202188 30.158615 7.299728 2.315731 -13.796284 1.973780 -12.657783 -0.000007 0.000007 -0.000004 -0.000000 0.000002 0.000000 
